<?xml version="1.0" encoding="UTF-8" standalone="no"?>
<!-- Creator: CorelDRAW X7 -->

<svg
   xml:space="preserve"
   width="1106px"
   height="983px"
   version="1.1"
   style="shape-rendering:geometricPrecision; text-rendering:geometricPrecision; image-rendering:optimizeQuality; fill-rule:evenodd; clip-rule:evenodd"
   viewBox="0 0 1094 972"
   id="svg41"
   sodipodi:docname="0f794c6f-2162-44bd-a89a-77e0a2961bcd.svg"
   xmlns:inkscape="http://www.inkscape.org/namespaces/inkscape"
   xmlns:sodipodi="http://sodipodi.sourceforge.net/DTD/sodipodi-0.dtd"
   xmlns="http://www.w3.org/2000/svg"
   xmlns:svg="http://www.w3.org/2000/svg"><sodipodi:namedview
   id="namedview41"
   pagecolor="#ffffff"
   bordercolor="#000000"
   borderopacity="0.25"
   inkscape:showpageshadow="2"
   inkscape:pageopacity="0.0"
   inkscape:pagecheckerboard="0"
   inkscape:deskcolor="#d1d1d1" />
 <defs
   id="defs6">
  <style
   type="text/css"
   id="style1">
   <![CDATA[
    .str0 {stroke:#283754;stroke-width:0.890471}
    .fil5 {fill:#FEFEFE}
    .fil9 {fill:#FFCC29}
    .fil4 {fill:#DFCEBE}
    .fil3 {fill:#292929}
    .fil6 {fill:#29557D}
    .fil0 {fill:#283754}
    .fil1 {fill:#F2BC3B}
    .fil2 {fill:#F3C137}
    .fil8 {fill:#FEFEFC}
    .fil7 {fill:url(#id0)}
   ]]>
  </style>
  <linearGradient
   id="id0"
   gradientUnits="userSpaceOnUse"
   x1="555.855"
   y1="729.138"
   x2="555.855"
   y2="879.493">
   <stop
   offset="0"
   style="stop-opacity:1; stop-color:#FEFEFE"
   id="stop1" />
   <stop
   offset="0.270588"
   style="stop-opacity:1; stop-color:#E1E1E2"
   id="stop2" />
   <stop
   offset="0.380392"
   style="stop-opacity:1; stop-color:#BABBBD"
   id="stop3" />
   <stop
   offset="0.509804"
   style="stop-opacity:1; stop-color:#C8C9CB"
   id="stop4" />
   <stop
   offset="0.65098"
   style="stop-opacity:1; stop-color:#FEFEFE"
   id="stop5" />
   <stop
   offset="1"
   style="stop-opacity:1; stop-color:#FEFEFE"
   id="stop6" />
  </linearGradient>
 </defs>
 <g
   id="Layer_x0020_1"
   inkscape:label="Layer 1">
  <metadata
   id="CorelCorpID_0Corel-Layer" />
  <g
   id="_945346136">
   <path
   class="fil0"
   d="M900 805c-23,-27 -32,-60 -86,-94 8,-14 42,-42 71,-95 22,-39 35,-80 43,-119 32,-181 -82,-366 -242,-449 -21,-11 -41,-20 -62,-28 -21,-8 -42,-12 -62,-19 1,0 1,-1 2,0 1,0 1,-1 2,-1 5,0 0,0 5,0l58 7c24,4 46,8 70,15 101,29 184,81 248,162 79,99 109,231 90,357 -7,48 -24,98 -48,146 -15,31 -65,106 -89,118z"
   id="path6" />
   <path
   class="fil1"
   d="M936 944c-6,-5 -4,-2 -5,-8l-1 -27c-7,-87 -32,-47 8,-96 93,-112 134,-234 134,-377l-3 -71c13,16 23,106 24,131 2,48 -2,94 -12,144 -22,106 -79,218 -145,304z"
   id="path7" />
   <path
   class="fil1"
   d="M734 673c13,-19 118,-78 127,-232 3,-56 -12,-120 -38,-170 -5,-9 -26,-45 -31,-48 27,11 71,86 78,107 35,94 33,186 -19,281 -15,27 -38,57 -59,76 -8,7 -6,7 -17,3 -11,-4 -32,-11 -41,-17z"
   id="path8" />
  </g>
  <g
   id="_945374312">
   <path
   class="fil0"
   d="M194 805c22,-27 32,-60 86,-94 -8,-14 -42,-42 -71,-95 -22,-39 -36,-80 -43,-119 -32,-181 82,-366 242,-449 21,-11 41,-20 62,-28 21,-8 42,-12 62,-19 -1,0 -1,-1 -2,0 -1,0 -1,-1 -2,-1 -5,0 0,0 -5,0l-58 7c-24,4 -46,8 -70,15 -101,29 -184,81 -249,162 -78,99 -108,231 -89,357 7,48 24,98 48,146 15,31 65,106 89,118z"
   id="path9" />
   <path
   class="fil1"
   d="M158 944c6,-5 4,-2 5,-8l1 -27c7,-87 32,-47 -8,-96 -93,-112 -134,-234 -134,-377l3 -71c-13,16 -24,106 -25,131 -1,48 3,94 13,144 22,106 79,218 145,304z"
   id="path10" />
   <path
   class="fil2"
   d="M360 673c-13,-19 -118,-78 -127,-232 -4,-56 12,-120 38,-170 5,-9 25,-45 31,-48 -27,11 -71,86 -79,107 -34,94 -32,186 20,281 14,27 38,57 59,76 8,7 6,7 17,3 11,-4 32,-11 41,-17z"
   id="path11" />
  </g>
  <g
   id="_945376856">
   <path
   class="fil3"
   d="M288 385c14,6 83,43 92,53 -22,36 -30,44 -45,93 -28,94 3,178 71,230l246 0c12,-13 26,-37 24,-59 -22,-19 -54,-28 -88,-19 -37,9 -52,36 -73,43 -8,-16 -28,-59 -2,-77 6,13 -3,24 -4,42 34,-4 79,-38 96,-67 7,-12 9,-28 22,-32 8,12 6,35 9,53 17,2 41,-32 47,-47 18,-42 0,-10 55,-42 60,-35 53,-49 73,-72 8,-9 19,-12 30,-19 19,-120 -144,-152 -253,-139 -73,10 -92,33 -113,26 -15,-5 -23,-9 -39,-13 -29,-6 -62,-6 -89,2 -25,8 -52,23 -59,44z"
   id="path12" />
   <path
   class="fil4"
   d="M630 761c13,-9 22,-23 29,-43 -57,-27 -90,1 -121,36 -4,4 -6,6 -9,7l101 0z"
   id="path13" />
   <path
   class="fil5"
   d="M529 761c3,-1 5,-3 9,-7 31,-35 64,-63 121,-36l2 -9c-23,-12 -52,-20 -82,-7 -13,6 -21,12 -31,20 -11,9 -19,21 -27,27 -16,-8 -31,-32 -35,-56 -6,2 -2,2 -7,-2 -3,-28 -1,-46 10,-69 20,-40 5,-39 -2,-50 -18,3 -43,36 -46,61 12,1 14,-2 23,3 -2,31 -16,45 -7,88 2,11 7,25 12,35 1,1 1,1 2,2l58 0z"
   id="path14" />
   <path
   class="fil6"
   d="M361 677c-52,-319 361,-394 443,-263 18,30 10,24 17,40 8,-11 0,-32 -6,-44 -8,-15 -13,-21 -27,-31 -29,-23 -47,-26 -89,-33 -131,-20 -279,29 -328,141 -23,51 -49,141 -10,190z"
   id="path15" />
   <path
   class="fil4"
   d="M720 544c-27,-8 -49,5 -59,-33l-31 3 -4 62c15,-1 33,-6 48,-11 15,-4 37,-9 46,-21z"
   id="path16" />
   <path
   class="fil5"
   d="M661 511c10,38 32,25 59,33 18,-1 59,-32 57,-43 -8,-3 -28,6 -51,8 -21,2 -43,1 -65,2z"
   id="path17" />
   <path
   class="fil6"
   d="M564 643c12,-5 7,-2 16,-13 25,-32 35,-67 33,-109 -1,-25 -7,-27 -32,-22 -4,19 15,36 10,76 -6,37 -21,44 -27,68z"
   id="path18" />
   <path
   class="fil6"
   d="M318 381c18,-4 25,-15 57,-13 27,1 34,14 52,22 7,-4 11,-6 17,-10 13,-8 10,-4 14,-14 -40,-28 -140,-11 -140,15z"
   id="path19" />
   <path
   class="fil4"
   d="M487 572c7,11 22,10 2,50 -11,23 -13,41 -10,69 5,4 1,4 7,2 0,-44 8,-55 34,-80 0,-18 3,-46 -7,-60 -11,3 -21,8 -26,19z"
   id="path20" />
   <path
   class="fil5"
   d="M630 414c7,14 12,20 30,26 18,5 30,5 46,4 33,3 3,-26 -11,-31 -20,-8 -46,-4 -65,1z"
   id="path21" />
   <path
   class="fil4"
   d="M706 444c-16,1 -28,1 -46,-4 -18,-6 -23,-12 -30,-26l-13 4c6,42 76,37 89,26z"
   id="path22" />
   <path
   class="fil6"
   d="M616 451c-12,-19 -16,-19 -13,-47l58 -13c-75,-4 -98,24 -45,60z"
   id="path23" />
  </g>
  <path
   class="fil0 str0"
   d="M148 680c0,0 110,55 120,55 11,0 124,10 135,13 10,2 102,-3 139,10 37,12 103,7 149,0 46,-8 121,-38 144,-39 23,-2 85,10 91,24 6,15 32,7 32,7 0,0 28,38 28,66 0,29 -5,82 -16,83 -10,2 -98,6 -98,6l-67 -1c0,0 -84,-15 -95,-13 -11,1 -104,-46 -104,-46 0,0 -24,-3 -34,0 -9,3 -49,21 -49,21 0,0 -26,5 -54,9 -28,4 -211,27 -245,32 -34,4 -118,20 -114,-2 3,-21 9,-142 10,-152 2,-10 -4,-79 28,-73z"
   id="path24" />
  <path
   class="fil0 str0"
   d="M1030 648c1,-1 2,-1 3,-1 13,0 25,7 30,18 3,6 4,11 4,17 -1,18 -2,36 -3,54 -2,17 -3,34 -4,51 0,21 0,42 0,63 1,21 1,42 1,63 0,5 2,9 3,13 2,5 3,9 3,13 0,6 -1,12 -5,17 -6,12 -21,18 -35,15 -16,-3 -33,-7 -50,-10 -3,-1 -5,-2 -8,-3 -3,0 -5,0 -8,-1 -17,-3 -34,-7 -51,-10 -18,-4 -28,-19 -26,-36 0,-1 -1,-3 -1,-4 -1,-2 -2,-5 -3,-7 -4,7 -9,13 -13,19l-11 17 -21 -4c-5,-1 -10,-2 -15,-3l-45 -8 25 -36c9,-12 18,-24 26,-37 6,-9 12,-18 18,-28 -6,-13 -12,-25 -17,-38 -7,-15 -13,-30 -20,-45 0,0 0,0 0,0 -1,0 -1,0 -1,-1 0,1 0,3 0,4 -1,9 -4,18 -10,26 -3,4 -5,8 -8,11 4,5 8,10 11,16 7,13 9,28 10,43 0,24 -6,48 -28,64 -19,14 -43,17 -67,14 -13,-2 -27,-5 -39,-11 -5,2 -10,3 -16,3 -16,-2 -31,-3 -46,-4 -19,0 -34,-14 -33,-32 0,-2 0,-4 1,-6 -1,-2 -1,-3 -2,-4 -3,-1 -5,-1 -8,-1 0,2 -1,3 -1,4 1,2 1,5 1,7 2,17 -12,31 -30,32 -8,0 -15,1 -22,1 -8,1 -16,-1 -22,-6 -14,7 -28,12 -44,14 -17,3 -35,2 -52,-3 -1,3 -2,5 -4,8 -5,6 -12,11 -20,13 -13,2 -27,4 -40,4 -9,1 -18,-1 -26,-4 -5,7 -13,12 -21,14 -17,3 -34,7 -51,10 -14,2 -27,-3 -34,-14 0,0 0,-1 -1,-1 -15,15 -33,26 -56,28 -25,3 -48,-7 -65,-25 -15,-17 -24,-38 -30,-60 -6,-24 -8,-49 -8,-74 0,-15 1,-30 3,-45 2,-14 5,-27 9,-40 7,-22 18,-45 35,-62 18,-17 40,-26 65,-23 25,3 45,15 59,33 1,1 2,1 2,2 7,-4 14,-5 22,-4 2,0 3,0 4,0 6,-1 12,-3 18,-5 4,-1 7,-1 10,-2 14,-4 29,-5 43,-2 16,3 30,11 42,22 11,9 19,21 24,33 24,-18 53,-23 84,-18 17,3 34,8 48,18 9,6 16,13 20,22 1,-7 5,-13 10,-18 6,-4 12,-7 19,-8 5,0 10,-1 15,-3 1,0 2,-1 3,-1 6,-5 13,-7 20,-8 8,0 15,2 21,6 7,4 12,9 14,16 3,8 5,16 8,24 2,-3 4,-7 6,-10 7,-12 18,-21 30,-29 13,-7 27,-12 41,-14 13,-2 26,-2 38,0 14,2 28,7 37,18 1,1 1,1 2,2 1,-14 12,-27 28,-29 7,-2 16,-3 23,-6 2,-1 5,-2 7,-4 2,-2 5,-3 7,-5 10,-6 23,-7 33,-2 11,5 17,15 17,25 2,4 3,7 5,11 6,-11 12,-21 17,-31l8 -13 16 -2c5,-1 11,-2 16,-2l56 -5 0 0zm-74 129c-2,3 -4,6 -6,9 2,4 4,9 5,13 1,-8 1,-15 1,-22zm-444 28c-10,5 -21,8 -33,7 -4,0 -7,0 -11,-1 -7,-1 -13,-4 -18,-7 0,0 0,0 0,0 1,7 2,15 5,21 1,1 3,5 4,5 1,1 1,1 2,1 1,0 3,-1 4,-2 2,-1 4,-2 6,-4l9 -9 13 -1c5,0 10,-1 15,-1 1,-3 2,-6 4,-9z"
   id="path25" />
  <path
   class="fil0 str0"
   d="M973 943c-3,1 -6,1 -9,1 -17,-4 -34,-8 -51,-11 -10,-2 -15,-12 -14,-22 1,0 1,0 1,0 0,-1 -1,-2 -1,-2 -1,-2 -1,-5 -2,-7 -4,-11 -9,-22 -14,-33 -2,3 -4,7 -7,10 -7,11 -14,22 -22,33l-6 8 -10 -2c-5,-1 -10,-2 -15,-3l-22 -4 12 -18c9,-12 18,-25 26,-37 8,-12 15,-23 22,-35 -7,-15 -14,-30 -20,-44 -7,-16 -13,-31 -20,-46 -1,-1 -2,-2 -2,-3 -5,-4 -7,-9 -7,-15 1,-9 6,-16 16,-17 8,-2 18,-4 26,-7 3,-2 7,-4 11,-6 2,-1 4,-3 6,-4 5,-4 12,-4 17,-1 6,3 9,8 9,14 0,1 0,1 0,1 5,11 9,23 14,34 1,2 2,5 3,8 3,-5 6,-10 9,-15 8,-15 17,-29 25,-44l4 -6 8 -1c5,-1 10,-1 16,-2l28 -3 -9 17c4,-1 9,-2 13,-4 4,-2 9,-6 11,-9 4,-4 8,-6 14,-6 7,-1 13,3 16,9 2,4 3,7 3,11 -1,17 -3,35 -4,53 -1,17 -2,35 -3,52 -1,21 0,42 0,63 0,21 1,42 1,63 0,6 2,13 4,18 1,3 2,6 2,8 0,4 -1,7 -3,10 -4,6 -11,10 -18,8 -17,-3 -34,-6 -50,-10 -3,-1 -6,-2 -8,-4zm-2 -65c0,-22 0,-43 0,-64 0,-31 2,-62 4,-92 0,-2 0,-4 0,-5 -5,8 -10,16 -15,24 -8,15 -18,29 -27,44 9,20 17,39 25,59 4,11 9,22 13,34zm-314 -53c2,-3 5,-6 8,-7 0,-1 0,-1 -1,-1 -11,-12 -15,-26 -14,-42 1,-12 5,-23 12,-34 6,-9 15,-17 26,-24 10,-6 22,-10 35,-12 11,-2 22,-2 33,0 10,1 20,5 27,13 6,6 8,13 7,21 0,7 -3,14 -7,20 -3,4 -7,9 -11,13 -2,2 -5,3 -8,4 0,0 1,0 1,0 9,6 16,14 20,24 6,11 8,24 8,36 1,20 -4,40 -21,53 -16,12 -36,14 -55,11 -14,-2 -27,-5 -39,-11 -1,-1 -3,-2 -4,-3 -3,4 -8,6 -14,5 -15,-1 -31,-2 -47,-3 -10,0 -18,-7 -18,-17 0,-2 1,-4 2,-6 0,-1 0,-1 0,-1 0,-1 0,-1 0,-1 -3,-6 -5,-12 -8,-18 -9,0 -19,0 -29,0 -2,6 -4,12 -6,18 0,1 0,2 0,2 1,2 2,4 2,6 1,9 -7,16 -16,17 -8,0 -15,1 -22,1 -8,1 -14,-3 -17,-9 0,-1 -1,-2 -1,-3 -2,2 -4,3 -6,5 -13,8 -28,13 -43,15 -16,2 -32,2 -46,-3 -16,-6 -27,-17 -35,-31 -7,-13 -10,-27 -11,-41 -2,5 -6,9 -10,13 3,10 8,20 13,30 4,6 9,14 16,18 6,3 10,8 10,15 0,3 -1,7 -4,10 -2,3 -6,6 -11,7 -12,2 -24,4 -36,4 -14,0 -28,-4 -35,-15 -3,-4 -5,-9 -7,-14 0,1 0,1 0,1 0,4 2,7 4,11 1,2 2,6 2,9 0,3 -1,6 -2,9 -3,5 -7,8 -13,9 -17,3 -33,7 -50,10 -8,1 -14,-2 -18,-8 -2,-3 -3,-6 -3,-10 0,-3 1,-6 2,-8 2,-5 4,-10 4,-16 0,-4 0,-8 0,-12 -6,15 -14,28 -25,40 -13,15 -29,25 -49,27 -21,2 -39,-5 -52,-20 -14,-15 -22,-35 -27,-54 -6,-23 -8,-47 -8,-71 0,-15 1,-29 3,-43 2,-13 5,-26 9,-38 6,-20 16,-41 31,-56 14,-14 32,-21 53,-19 20,3 36,13 48,27 5,7 10,13 14,20 0,-2 0,-4 1,-6 3,-7 11,-11 19,-10 3,1 6,0 10,0 6,-2 13,-3 19,-5 3,-1 6,-2 9,-3 12,-3 24,-4 36,-1 13,3 25,9 34,18 10,9 17,19 22,31 3,7 5,15 6,22 4,-6 9,-11 14,-16 20,-18 47,-22 74,-18 15,2 30,7 42,15 13,9 20,21 19,36 0,12 -5,22 -15,29 -8,6 -18,9 -28,8 -3,0 -6,0 -9,-1 -10,-1 -19,-8 -18,-18 0,-4 2,-7 5,-10 0,0 0,-1 0,-1 1,-2 1,-4 1,-6 0,-1 0,-2 0,-3 0,0 -1,-1 -1,-1 -2,0 -3,0 -4,0 -7,1 -10,4 -13,10 -4,10 -6,21 -6,31 0,2 0,4 0,6 1,9 2,18 6,26 3,5 6,9 10,12 4,2 7,2 11,2 4,0 7,-1 11,-3 4,-2 7,-5 10,-8l4 -4 6 -1c6,0 12,0 17,-1l9 0c4,-10 7,-19 11,-29 7,-16 14,-32 22,-48 -3,-3 -4,-6 -4,-10 0,-5 2,-9 6,-12 3,-3 6,-4 10,-4 6,-1 13,-2 19,-5 1,0 5,-2 6,-3 4,-2 8,-4 12,-4 4,-1 8,1 12,3 3,2 6,5 8,9 7,21 13,43 21,64 5,12 10,24 15,36zm69 35c0,-1 0,-3 0,-4 0,-3 0,-5 -2,-7 -5,-4 -13,-7 -19,-9 -3,-1 -5,-2 -7,-3 1,5 4,10 7,14 4,5 10,8 17,9 1,0 3,0 4,0zm18 -94c-1,-1 -2,-3 -2,-5 0,-6 -1,-11 -4,-15 -1,-2 -10,-1 -11,-1 -3,0 -5,1 -7,3 -2,1 -2,3 -2,5 0,1 0,4 0,4 3,3 13,6 17,7 3,1 6,1 9,2zm-594 -63c-2,5 -4,12 -4,15 -3,12 -4,23 -6,35 -1,14 -2,29 -2,43 0,17 0,33 1,50 1,13 2,25 4,38 1,2 3,10 5,16 2,-6 4,-15 5,-18 2,-11 3,-23 4,-34 1,-14 2,-27 2,-41 0,-16 0,-33 -1,-49 0,-12 -1,-25 -3,-37 -1,-3 -3,-12 -5,-18zm146 92c2,-8 2,-19 3,-24 0,-8 0,-21 -1,-31 -1,9 -1,18 -1,27 -1,9 -1,19 -1,28z"
   id="path26" />
  <path
   class="fil7 str0"
   d="M192 687c-10,-13 -23,-20 -38,-22 -15,-1 -28,4 -39,15 -12,11 -21,28 -28,50 -4,11 -7,23 -9,36 -2,12 -3,26 -3,41 0,25 3,47 8,68 5,20 13,36 23,48 11,11 24,16 39,15 15,-2 28,-9 39,-22 12,-12 21,-29 28,-50 3,-10 5,-21 7,-32 2,-12 2,-24 3,-37 0,-23 -2,-43 -7,-62 -5,-19 -12,-35 -23,-48zm-24 198c-4,21 -11,32 -20,33 -9,1 -16,-10 -20,-32 -2,-11 -3,-24 -4,-39 -1,-15 -1,-32 -1,-51 0,-16 1,-31 2,-44 2,-14 3,-26 6,-36 4,-22 10,-32 19,-31 10,1 16,12 20,34 2,11 3,24 3,39 1,14 1,31 1,49 0,15 -1,29 -2,42 -1,13 -2,25 -4,36zm204 13c0,-2 0,-2 -1,-3 -9,-4 -16,-12 -22,-23 -7,-12 -12,-25 -16,-38 0,-2 0,-3 0,-4 9,-7 15,-16 20,-28 4,-12 7,-26 7,-42 0,-12 -2,-23 -6,-33 -5,-10 -10,-19 -18,-26 -8,-7 -18,-12 -28,-15 -9,-1 -18,-1 -27,2 -2,0 -5,1 -10,2 -8,3 -14,4 -20,6 -5,1 -11,1 -16,0 -1,0 -1,0 -2,1 0,1 0,2 0,3 0,2 0,3 1,4 4,6 5,12 5,18 -1,29 -2,59 -2,88 -1,29 -1,58 -1,87 0,7 -1,14 -5,21 -1,1 -1,2 -1,3 0,1 0,2 1,3 0,1 1,1 2,1 16,-3 33,-6 50,-10 1,0 1,0 2,-2 0,0 1,-1 1,-2 0,-1 0,-2 -1,-3 -3,-5 -5,-11 -5,-17 0,-18 0,-35 0,-52 5,1 10,2 13,2 2,2 4,9 8,21 3,8 5,15 7,20 3,6 5,11 7,15 4,5 11,8 21,8 11,0 22,-2 34,-4 1,0 1,-1 2,-1 0,-1 0,-2 0,-2zm-89 -74c-1,0 -2,0 -3,-1 0,-19 1,-38 1,-57 1,-19 2,-38 2,-57 3,-2 6,-2 10,-2 7,1 12,7 16,17 4,10 6,25 5,47 -1,20 -4,34 -9,41 -5,8 -11,12 -17,13 -2,0 -3,-1 -5,-1zm202 46c11,-7 19,-16 26,-27 -6,0 -11,0 -17,0 -4,5 -9,8 -14,11 -5,3 -10,5 -16,5 -7,1 -14,-1 -20,-4 -7,-3 -12,-9 -16,-17 -5,-9 -7,-19 -8,-32 -1,-2 -1,-5 -1,-7 1,-13 3,-25 8,-36 5,-11 13,-17 25,-19 3,0 5,0 7,0 6,1 10,3 12,6 3,4 4,8 4,13 -1,3 -1,6 -2,9 -1,2 -2,5 -4,6 0,1 -1,1 -1,2 0,1 2,3 6,4 1,0 3,0 6,0 7,0 14,-1 19,-5 5,-4 8,-10 9,-18 1,-10 -4,-18 -13,-24 -9,-7 -21,-11 -35,-13 -26,-4 -46,0 -61,14 -8,7 -14,17 -18,29 -4,11 -7,26 -7,42 0,19 3,35 10,48 6,12 15,20 26,24 11,4 24,4 38,2 15,-2 27,-7 37,-13zm178 6c0,-1 -1,-2 -1,-3 -2,-2 -5,-6 -7,-12 -9,-23 -19,-45 -27,-67 -8,-22 -14,-44 -22,-65 0,0 -1,-1 -2,-1 -1,-1 -2,-1 -2,-1 -1,0 -1,0 -2,1 -2,1 -6,3 -11,6 -6,2 -14,4 -23,5 -1,0 -2,0 -2,0 0,1 -1,1 -1,2 0,1 1,1 2,2 1,1 2,2 2,3 1,1 1,3 2,4 -8,18 -17,36 -25,54 -7,19 -13,37 -20,56 -2,4 -5,8 -9,12 0,1 0,1 0,2 0,1 1,1 2,1 7,0 14,-1 22,-1 1,0 2,-1 2,-2 0,0 0,-1 -1,-1 -1,-3 -2,-6 -2,-8 0,0 0,-1 0,-2 4,-10 8,-20 11,-30 17,0 34,0 51,0 4,9 7,18 11,27 1,2 1,4 1,5 0,3 0,5 -1,7 0,0 -1,1 -1,2 0,1 2,2 4,2 16,1 32,2 47,3 1,0 2,0 2,-1zm-88 -109c3,9 6,18 9,26 3,9 7,18 11,27 -14,0 -28,0 -42,0 4,-9 7,-18 10,-26 4,-9 8,-18 12,-27zm181 21c-7,-4 -15,-8 -25,-11 -11,-2 -19,-5 -23,-9 -4,-4 -6,-9 -6,-15 1,-6 3,-11 7,-15 4,-4 9,-6 16,-7 12,-2 21,0 26,7 5,7 7,14 7,23 0,0 0,1 0,1 1,1 1,1 2,1 0,0 1,-1 1,-1 3,-3 6,-7 9,-11 3,-4 5,-9 5,-13 0,-4 -1,-8 -4,-11 -3,-4 -9,-7 -18,-8 -9,-2 -18,-1 -28,0 -11,2 -20,5 -29,10 -9,5 -16,12 -21,20 -6,8 -9,17 -10,27 0,13 3,23 11,31 7,8 19,15 34,19 12,4 20,8 25,13 4,4 7,10 7,17 0,6 -2,11 -6,15 -4,3 -9,4 -16,3 -12,-1 -21,-6 -28,-15 -6,-9 -10,-19 -12,-31 -5,0 -9,2 -11,6 -3,4 -5,8 -5,14 1,4 2,8 3,12 4,6 10,12 19,16 8,5 19,8 33,10 18,2 32,0 43,-8 11,-8 16,-22 16,-42 0,-12 -2,-22 -6,-30 -4,-8 -9,-14 -16,-18zm216 135c0,-1 0,-3 -1,-4 -9,-24 -18,-47 -27,-70 -10,-22 -19,-44 -27,-65 10,-16 20,-33 30,-50 10,-17 20,-35 30,-53 -5,1 -10,1 -15,2 -9,15 -17,29 -26,44 -8,14 -17,28 -25,41 -5,-12 -10,-24 -14,-36 -5,-12 -10,-23 -15,-34 0,-2 -1,-4 -1,-7 1,0 0,-1 0,-1 -1,0 -1,0 -1,0 -1,1 -3,2 -6,4 -3,2 -7,5 -14,8 -6,3 -16,5 -30,8 -1,0 -2,1 -2,3 0,2 0,4 1,5 1,1 3,3 5,7 8,15 14,30 21,46 7,17 15,33 23,51 -8,14 -17,28 -26,41 -8,13 -17,26 -26,38 5,1 10,2 15,3 8,-11 15,-21 22,-32 8,-11 15,-23 22,-35 9,19 18,39 27,60 1,3 1,6 2,8 1,2 1,4 1,6 0,1 0,2 0,3 -1,3 0,5 2,5 17,4 34,7 51,11 1,0 2,-1 3,-2 0,-1 1,-3 1,-5zm64 16c0,-1 0,-2 0,-3 -4,-9 -5,-16 -5,-23 -1,-21 -1,-42 -1,-63 -1,-21 -1,-42 0,-64 1,-17 2,-35 3,-52 1,-18 2,-35 3,-53 0,-2 0,-3 -1,-4 0,-1 -1,-1 -2,-1 0,0 -1,0 -2,1 -3,4 -8,8 -15,12 -8,4 -17,6 -29,7 -1,0 -1,1 -2,1 0,2 0,3 -1,4 0,1 1,3 1,4 4,5 6,11 5,17 -2,31 -4,62 -4,92 0,31 1,61 1,92 0,6 -1,12 -5,20 0,0 -1,1 -1,2 0,1 1,3 1,3 1,2 1,2 2,2 16,4 33,7 50,11 0,0 1,-1 2,-2 0,0 0,-1 0,-3z"
   id="path27" />
  <g
   id="_685015176">
   <path
   class="fil0"
   d="M572 223c-3,0 -7,-3 -10,-1 -3,2 -1,7 0,10l7 18c1,-1 4,-4 5,-5 0,0 0,0 0,1 0,3 2,5 6,5 -3,12 -22,14 -32,8 -4,-2 -4,-4 -6,-8 3,-3 6,-3 10,-2 3,1 7,5 9,5 0,-1 -2,-7 -3,-9 -1,-4 -2,-7 -3,-10 -1,-3 -6,-17 -8,-18 -2,2 -3,7 -5,10 -1,4 -3,8 -6,10 -1,-3 -2,-4 -2,-7 -2,-12 3,-8 -10,-10 -4,-1 -7,-3 -10,-3 1,3 4,6 5,9 5,11 9,21 13,32 1,3 3,6 4,10 4,9 9,26 9,36 4,-1 9,-2 13,-3 18,-4 39,-5 58,-6 18,-1 38,0 56,2 18,1 33,3 50,7 2,0 13,3 15,2 1,-5 0,-7 2,-12 2,-11 7,-21 12,-31 3,-10 8,-21 13,-29 1,-3 4,-8 5,-11 -6,1 -12,3 -19,2 2,6 3,12 -1,17 -5,-8 -7,-5 -9,-18 -1,-1 -1,-1 -1,-1l0 -2c-2,1 -1,-1 -2,1l-2 8c-2,3 -3,6 -4,9 -1,3 -8,16 -8,18 3,0 2,0 5,-2 5,-3 10,-3 13,2 -2,6 -13,12 -20,10 -5,0 -9,-1 -12,-3 -3,-2 -6,-5 -6,-10 7,-1 4,-2 7,-5 3,1 2,4 5,4 1,-2 2,-5 3,-7 1,-2 2,-4 3,-6 2,-5 6,-10 3,-14 -5,-3 -7,0 -12,1 1,-3 2,-7 3,-10 7,-23 -3,-41 -16,-15 -2,5 -5,17 -6,19 -2,-3 -2,-4 -4,-6 -1,-3 -2,-4 -7,-3 -2,2 -3,10 -3,15l-3 15c2,1 4,-1 7,-2 0,4 -1,5 2,7 -3,7 -13,8 -20,6 -6,-3 -11,-6 -13,-12 0,-4 0,-2 1,-3 1,0 7,2 9,3 1,0 3,2 4,2 1,1 2,2 4,2 0,-1 -2,-6 -2,-20 0,-4 3,-13 3,-14 -5,1 -12,10 -20,10 1,-7 4,-12 8,-17l4 -5 -39 -1c0,2 7,8 10,23 -7,-2 -10,-5 -15,-8 -1,-1 -3,-3 -4,-3 0,0 0,0 0,0 0,0 0,0 0,1 0,0 0,0 0,1 0,0 1,2 1,2 4,15 1,19 -1,31l8 -5c3,-1 7,-3 10,-3 0,17 -29,21 -34,10 2,-3 5,-3 2,-8 4,0 6,3 8,2 1,-1 -2,-12 -2,-15 0,-7 0,-21 -9,-13 -2,1 -3,2 -4,4 -2,-3 -6,-32 -17,-31 -7,0 -8,11 -8,16 1,3 0,7 1,11 1,4 1,6 2,10z"
   id="path28" />
   <path
   class="fil0"
   d="M635 298c-27,0 -59,3 -85,8 -5,1 -6,1 -10,4 -4,3 -6,12 2,17 4,2 7,2 11,1 19,-4 53,-8 72,-8 5,0 10,0 14,0 2,0 5,0 8,0l14 1c15,0 46,5 61,9 2,0 3,1 5,1 6,2 13,-2 15,-8 4,-14 -20,-15 -30,-18 -19,-4 -58,-8 -77,-7z"
   id="path29" />
   <path
   class="fil8"
   d="M636 279l11 1 1 -19 -11 0c-1,6 -1,12 -1,18z"
   id="path30" />
   <path
   class="fil8"
   d="M587 273c1,1 2,2 3,3l4 3c2,-2 4,-5 6,-7 -3,-2 -5,-5 -8,-6 0,0 0,0 0,0 0,1 0,0 -1,1l-4 6z"
   id="path31" />
   <path
   class="fil8"
   d="M685 272c1,3 2,6 4,9 2,-2 5,-3 8,-5 -1,-3 -3,-7 -5,-8 -2,0 -2,1 -4,2 -1,1 -2,1 -3,2z"
   id="path32" />
   <path
   class="fil8"
   d="M547 274c0,3 1,6 1,8 1,1 1,2 1,4l2 3 4 -1c0,-3 -2,-12 -3,-14l-5 0z"
   id="path33" />
   <path
   class="fil8"
   d="M726 291l3 1c3,0 4,-6 5,-9 1,-2 1,-2 2,-4 -2,-1 -3,-1 -6,-2 -1,2 -4,11 -4,14z"
   id="path34" />
   <path
   class="fil8"
   d="M662 266c-7,4 -2,10 2,9 7,-2 3,-11 -2,-9z"
   id="path35" />
   <path
   class="fil8"
   d="M619 265c-1,0 -5,0 -5,5 0,2 3,4 5,4 6,-1 6,-10 0,-9z"
   id="path36" />
   <path
   class="fil8"
   d="M565 273c-6,4 1,10 4,7 5,-3 0,-10 -4,-7z"
   id="path37" />
   <path
   class="fil8"
   d="M710 275c-2,1 -4,2 -2,6 0,2 2,3 5,2 6,-2 2,-10 -3,-8z"
   id="path38" />
  </g>
  <g
   id="_685017984">
   <path
   class="fil9"
   d="M631 153c2,6 9,15 15,19 6,4 14,8 24,8 2,-4 1,-11 -1,-16 -1,-5 -5,-9 -8,-11 -6,-5 -16,-7 -24,-3 -2,0 -5,2 -6,3z"
   id="path39" />
   <path
   class="fil9"
   d="M664 190c-14,-1 -26,-7 -34,-17 -3,-4 -6,-10 -6,-10 -3,5 -3,12 -1,18 5,14 21,20 35,14 1,-1 5,-4 6,-5z"
   id="path40" />
   <path
   class="fil9"
   d="M668 184c-15,-2 -29,-10 -36,-23 -1,-1 -3,-5 -3,-6 -1,1 -2,2 -3,3 -1,1 0,2 1,3 6,14 20,24 35,26 2,0 4,0 5,-1 0,0 0,0 0,-1 1,0 1,-1 1,-1z"
   id="path41" />
  </g>
 </g>
</svg>
